<svg xmlns:xlink="http://www.w3.org/1999/xlink" preserveAspectRatio="xMidYMid meet" data-bbox="0.003 0.004 93.634 93.636" viewBox="0.003 0.004 93.634 93.636" xmlns="http://www.w3.org/2000/svg" data-type="color" role="presentation" aria-hidden="true" width="93.634"  height="93.636" >
    <g>
        <path d="M46.82 93.64a2.97 2.97 0 0 1-2.97-2.97v-17a2.97 2.97 0 0 1 5.94 0v17a2.97 2.97 0 0 1-2.97 2.97Z" fill="#176BFF" data-color="1"></path>
        <path d="M46.82 22.94a2.97 2.97 0 0 1-2.97-2.97v-17a2.97 2.97 0 0 1 5.94 0v17a2.97 2.97 0 0 1-2.97 2.97Z" fill="#176BFF" data-color="1"></path>
        <path d="M19.97 49.79h-17a2.97 2.97 0 0 1 0-5.94h17a2.97 2.97 0 0 1 0 5.94Z" fill="#176BFF" data-color="1"></path>
        <path d="M90.67 49.79h-17a2.97 2.97 0 0 1 0-5.94h17a2.97 2.97 0 0 1 0 5.94Z" fill="#176BFF" data-color="1"></path>
    </g>
</svg>