<svg xmlns:xlink="http://www.w3.org/1999/xlink" preserveAspectRatio="xMidYMid meet" data-bbox="0 0 356.36 131.23" viewBox="0 0 356.36 131.23" xmlns="http://www.w3.org/2000/svg" data-type="color" role="presentation" aria-hidden="true" width="356.36"  height="131.23" >
    <g>
        <path fill="#176BFF" d="M356.36 131.23 200.39 0h-7.79l155.97 131.23h7.79z" data-color="1"></path>
        <path fill="#176BFF" d="M332.29 131.23 176.32 0h-7.79L324.5 131.23h7.79z" data-color="1"></path>
        <path fill="#176BFF" d="M308.21 131.23 152.24 0h-7.79l155.97 131.23h7.79z" data-color="1"></path>
        <path fill="#176BFF" d="M284.14 131.23 128.17 0h-7.79l155.97 131.23h7.79z" data-color="1"></path>
        <path fill="#176BFF" d="M260.06 131.23 104.09 0H96.3l155.97 131.23h7.79z" data-color="1"></path>
        <path fill="#176BFF" d="M235.99 131.23 80.02 0h-7.79L228.2 131.23h7.79z" data-color="1"></path>
        <path fill="#176BFF" d="M211.91 131.23 55.94 0h-7.79l155.97 131.23h7.79z" data-color="1"></path>
        <path fill="#176BFF" d="M187.83 131.23 31.87 0h-7.79l155.96 131.23h7.79z" data-color="1"></path>
        <path fill="#176BFF" d="M163.76 131.23 7.79 0H0l155.97 131.23h7.79z" data-color="1"></path>
    </g>
</svg>