<svg xmlns:xlink="http://www.w3.org/1999/xlink" preserveAspectRatio="xMidYMid meet" data-bbox="0 0 295.92 295.92" viewBox="0 0 295.92 295.92" xmlns="http://www.w3.org/2000/svg" data-type="color" role="presentation" aria-hidden="true" width="295.92"  height="295.92" >
    <g>
        <path d="M147.96 36.74a2.97 2.97 0 0 1-2.97-2.97V2.97a2.97 2.97 0 0 1 5.94 0v30.8a2.97 2.97 0 0 1-2.97 2.97Z" fill="#7D52FF" data-color="1"></path>
        <path d="M104.26 45.43c-1.17 0-2.27-.69-2.75-1.84L89.72 15.14c-.63-1.52.09-3.25 1.61-3.88a2.96 2.96 0 0 1 3.88 1.61L107 41.32c.63 1.52-.09 3.25-1.61 3.88-.37.15-.76.23-1.14.23Z" fill="#7D52FF" data-color="1"></path>
        <path d="M67.22 70.19c-.76 0-1.52-.29-2.1-.87L43.34 47.54a2.97 2.97 0 1 1 4.2-4.2l21.78 21.78a2.97 2.97 0 0 1-2.1 5.07Z" fill="#7D52FF" data-color="1"></path>
        <path d="M42.46 107.23c-.38 0-.76-.07-1.14-.23L12.87 95.21a2.968 2.968 0 0 1-1.61-3.88 2.968 2.968 0 0 1 3.88-1.61l28.45 11.79c1.52.63 2.24 2.37 1.61 3.88a2.98 2.98 0 0 1-2.75 1.84Z" fill="#7D52FF" data-color="1"></path>
        <path d="M33.77 150.93H2.97a2.97 2.97 0 0 1 0-5.94h30.8a2.97 2.97 0 0 1 0 5.94Z" fill="#7D52FF" data-color="1"></path>
        <path d="M14.01 206.42c-1.17 0-2.27-.69-2.75-1.84-.63-1.52.09-3.25 1.61-3.88l28.45-11.79c1.51-.63 3.25.09 3.88 1.61.63 1.52-.09 3.25-1.61 3.88l-28.45 11.79c-.37.15-.76.23-1.14.23Z" fill="#7D52FF" data-color="1"></path>
        <path d="M45.44 253.46a2.97 2.97 0 0 1-2.1-5.07l21.78-21.78a2.97 2.97 0 1 1 4.2 4.2l-21.78 21.78c-.58.58-1.34.87-2.1.87Z" fill="#7D52FF" data-color="1"></path>
        <path d="M92.48 284.89c-.38 0-.76-.07-1.14-.23a2.968 2.968 0 0 1-1.61-3.88l11.79-28.45a2.968 2.968 0 0 1 3.88-1.61c1.52.63 2.24 2.37 1.61 3.88l-11.79 28.45a2.98 2.98 0 0 1-2.75 1.84Z" fill="#7D52FF" data-color="1"></path>
        <path d="M147.96 295.92a2.97 2.97 0 0 1-2.97-2.97v-30.8a2.97 2.97 0 0 1 5.94 0v30.8a2.97 2.97 0 0 1-2.97 2.97Z" fill="#7D52FF" data-color="1"></path>
        <path d="M203.45 284.89c-1.17 0-2.27-.69-2.75-1.84l-11.79-28.45c-.63-1.52.09-3.25 1.61-3.88a2.96 2.96 0 0 1 3.88 1.61l11.79 28.45c.63 1.52-.09 3.25-1.61 3.88-.37.15-.76.23-1.14.23Z" fill="#7D52FF" data-color="1"></path>
        <path d="M250.48 253.46c-.76 0-1.52-.29-2.1-.87l-21.78-21.78a2.97 2.97 0 1 1 4.2-4.2l21.78 21.78a2.97 2.97 0 0 1-2.1 5.07Z" fill="#7D52FF" data-color="1"></path>
        <path d="M281.91 206.42c-.38 0-.76-.07-1.14-.23l-28.45-11.79a2.968 2.968 0 0 1-1.61-3.88 2.968 2.968 0 0 1 3.88-1.61l28.45 11.79c1.52.63 2.24 2.37 1.61 3.88a2.98 2.98 0 0 1-2.75 1.84Z" fill="#7D52FF" data-color="1"></path>
        <path d="M292.95 150.93h-30.8a2.97 2.97 0 0 1 0-5.94h30.8a2.97 2.97 0 0 1 0 5.94Z" fill="#7D52FF" data-color="1"></path>
        <path d="M253.46 107.23c-1.17 0-2.27-.69-2.75-1.84-.63-1.52.09-3.25 1.61-3.88l28.45-11.79a2.96 2.96 0 0 1 3.88 1.61c.63 1.52-.09 3.25-1.61 3.88L254.59 107c-.37.15-.76.23-1.14.23Z" fill="#7D52FF" data-color="1"></path>
        <path d="M228.71 70.19a2.97 2.97 0 0 1-2.1-5.07l21.78-21.78a2.97 2.97 0 1 1 4.2 4.2l-21.78 21.78c-.58.58-1.34.87-2.1.87Z" fill="#7D52FF" data-color="1"></path>
        <path d="M191.66 45.43c-.38 0-.76-.07-1.14-.23a2.968 2.968 0 0 1-1.61-3.88l11.79-28.45a2.968 2.968 0 0 1 3.88-1.61c1.52.63 2.24 2.37 1.61 3.88L194.4 43.59a2.98 2.98 0 0 1-2.75 1.84Z" fill="#7D52FF" data-color="1"></path>
    </g>
</svg>