<svg xmlns:xlink="http://www.w3.org/1999/xlink" preserveAspectRatio="xMidYMid meet" data-bbox="0.003 0.003 84.604 96.117" viewBox="0.003 0.003 84.604 96.117" xmlns="http://www.w3.org/2000/svg" data-type="color" role="presentation" aria-hidden="true" width="84.604"  height="96.117" >
    <g>
        <path d="M43.13 96.12a2.97 2.97 0 0 1-2.97-2.97V77.42a2.97 2.97 0 0 1 5.94 0v15.73a2.97 2.97 0 0 1-2.97 2.97Z" fill="#FF2E5C" data-color="1"></path>
        <path d="M43.13 21.67a2.97 2.97 0 0 1-2.97-2.97V2.97a2.97 2.97 0 0 1 5.94 0V18.7a2.97 2.97 0 0 1-2.97 2.97Z" fill="#FF2E5C" data-color="1"></path>
        <path d="M68.02 35.38a2.975 2.975 0 0 1-1.49-5.55l13.62-7.86c1.42-.82 3.24-.33 4.06 1.09.82 1.42.33 3.24-1.09 4.06L69.5 34.98c-.47.27-.98.4-1.48.4Z" fill="#FF2E5C" data-color="1"></path>
        <path d="M3.55 72.6a2.975 2.975 0 0 1-1.49-5.55l13.62-7.86c1.42-.82 3.24-.33 4.06 1.09.82 1.42.33 3.24-1.09 4.06L5.03 72.2c-.47.27-.98.4-1.48.4Z" fill="#FF2E5C" data-color="1"></path>
        <path d="M16.59 36.33c-.5 0-1.02-.13-1.48-.4L1.49 28.07A2.975 2.975 0 0 1 .4 24.01a2.975 2.975 0 0 1 4.06-1.09l13.62 7.86a2.975 2.975 0 0 1-1.49 5.55Z" fill="#FF2E5C" data-color="1"></path>
        <path d="M81.06 73.55c-.5 0-1.01-.13-1.48-.4l-13.62-7.86a2.975 2.975 0 0 1-1.09-4.06 2.975 2.975 0 0 1 4.06-1.09L82.55 68a2.975 2.975 0 0 1-1.49 5.55Z" fill="#FF2E5C" data-color="1"></path>
    </g>
</svg>