<svg xmlns:xlink="http://www.w3.org/1999/xlink" xmlns="http://www.w3.org/2000/svg" width="19" viewBox="0 0 19 19" role="img" class="cXULmD blog-icon-fill" height="19" ><path d="M18,4.65548179 C17.3664558,4.9413444 16.6940105,5.12876845 16.0053333,5.21143556 C16.7308774,4.76869949 17.2742158,4.07523994 17.5353333,3.25870539 C16.8519351,3.66952531 16.1046338,3.95967186 15.3253333,4.116758 C14.3449436,3.05903229 12.8270486,2.71461351 11.4952673,3.24769481 C10.1634861,3.78077611 9.28740204,5.08344943 9.28466667,6.53469742 C9.28603297,6.80525838 9.31643401,7.07486596 9.37533333,7.33876278 C6.57168283,7.1960128 3.95976248,5.85317869 2.19,3.64465676 C1.87608497,4.18262214 1.71160854,4.79663908 1.714,5.42164122 C1.61438697,6.56033644 2.09783469,7.6712643 2.99466667,8.36452045 C2.36720064,8.27274888 1.74900117,8.12475716 1.14733333,7.9222845 L1.14733333,7.96708243 C1.26738074,9.69877048 2.5327167,11.1265052 4.21866667,11.4326042 C3.96602896,11.5152522 3.7021383,11.5571156 3.43666667,11.55666 C3.23854288,11.557327 3.0409356,11.5361435 2.84733333,11.4934834 C3.31534048,12.9376046 4.63446966,13.9228162 6.134,13.9481801 C4.90488101,14.9328579 3.38271245,15.4661427 1.816,15.4609716 C1.5432586,15.4614617 1.27074516,15.4449665 1,15.411579 C4.05446938,17.394368 7.93290025,17.5303291 11.1152384,15.7661758 C14.2975765,14.0020226 16.2768505,10.6187983 16.2773333,6.94247342 C16.2773333,6.789701 16.266,6.63692858 16.266,6.4830075 C16.9469737,5.98359293 17.5342367,5.3646551 18,4.65548179 L18,4.65548179 Z" fill="#05053D"></path></svg>