<svg xmlns:xlink="http://www.w3.org/1999/xlink" preserveAspectRatio="xMidYMid meet" data-bbox="5.87 6.97 83.26 81.05" viewBox="5.87 6.97 83.26 81.05" xmlns="http://www.w3.org/2000/svg" data-type="shape" role="presentation" aria-hidden="true" aria-labelledby="comp-l8aj7b7x-svgtitle_comp-l8aj7b7x" width="83.26"  height="81.05" ><title id="comp-l8aj7b7x-svgtitle_comp-l8aj7b7x"></title>
    <g stroke="#5E97FF" fill="#FFFFFF" stroke-width="0px">
        <path d="M13.01 16.64h4.91v7.41c0 2.52 2.06 4.59 4.59 4.59h4.44c2.53 0 4.59-2.07 4.59-4.59v-7.41h33.57v7.41c0 2.52 2.06 4.59 4.59 4.59h4.46c2.51 0 4.59-2.07 4.59-4.59v-7.41H82c3.92 0 7.13 3.21 7.13 7.13v8.95H5.87v-8.95c0-3.92 3.21-7.13 7.14-7.13zM69.7 6.98c-1.05 0-1.9.86-1.9 1.91v15.16c0 1.05.85 1.9 1.9 1.9h4.46c1.04 0 1.9-.86 1.9-1.9V8.88c0-1.05-.86-1.91-1.9-1.91H69.7v.01zm-47.19 0c-1.05 0-1.92.86-1.92 1.91v15.16c0 1.05.86 1.9 1.92 1.9h4.44c1.05 0 1.9-.86 1.9-1.9V8.88c0-1.05-.85-1.91-1.9-1.91h-4.44v.01zm-8.57 32.46h67.08c.73 0 1.34.6 1.34 1.34v40.57c0 .74-.61 1.34-1.34 1.34H13.94c-.75 0-1.34-.6-1.34-1.34V40.79a1.33 1.33 0 0 1 1.34-1.35zm65.74 2.69H68.94v7.46h10.74v-7.46zm-13.43 0H55.53v7.46h10.72v-7.46zm-13.41 0H42.12v7.46h10.72v-7.46zm-13.41 0H28.69v7.46h10.74v-7.46zm-13.42 0H15.28v7.46H26v-7.46h.01zM15.28 52.27v7.46H26v-7.46H15.28zm13.41 7.46h10.74v-7.46H28.69v7.46zm13.43 0h10.72v-7.46H42.12v7.46zm13.41 0h10.72v-7.46H55.53v7.46zm13.41 0h10.74v-7.46H68.94v7.46zm-53.66 2.68v7.46H26v-7.46H15.28zm13.41 7.46h10.74v-7.46H28.69v7.46zm13.43 0h10.72v-7.46H42.12v7.46zm13.41 0h10.72v-7.46H55.53v7.46zm13.41 0h10.74v-7.46H68.94v7.46zm-53.66 2.69v7.46H26v-7.46H15.28zm13.41 7.46h10.74v-7.46H28.69v7.46zm13.43 0h10.72v-7.46H42.12v7.46zm13.41 0h10.72v-7.46H55.53v7.46zm13.41 0h10.74v-7.46H68.94v7.46zM89.13 35.4H5.87v45.49c0 3.92 3.21 7.13 7.13 7.13h68.99c3.92 0 7.13-3.21 7.13-7.13V35.4z" fill-rule="evenodd" clip-rule="evenodd" stroke="#5E97FF" fill="#FFFFFF" stroke-width="0px"></path>
    </g>
</svg>