<svg xmlns:xlink="http://www.w3.org/1999/xlink" preserveAspectRatio="xMidYMid meet" data-bbox="3.2 2.347 93.618 95.307" viewBox="3.2 2.347 93.618 95.307" xmlns="http://www.w3.org/2000/svg" data-type="shape" role="presentation" aria-hidden="true" width="93.618"  height="95.307" >
    <g stroke="#5E97FF" fill="#FFFFFF" stroke-width="0px">
        <path d="M3.2 28.29v40.14a12.43 12.43 0 0 0 12.42 12.41h25.47L57.2 96.92a2.5 2.5 0 0 0 4.27-1.77V80.84h6.31a12.43 12.43 0 0 0 12.41-12.41V40L95 19.61A9.77 9.77 0 0 0 92.75 6l-2.47-1.81a9.77 9.77 0 0 0-13.64 2.22l-6.82 9.47h-54.2A12.43 12.43 0 0 0 3.2 28.29Zm77.5-19a4.77 4.77 0 0 1 6.66-1.08L89.82 10a4.77 4.77 0 0 1 1.08 6.65L65.16 52.19A15.4 15.4 0 0 0 55 44.83L68.9 25.7Zm-28 40.21a10.45 10.45 0 0 1 8.73 6.29l-10.2 5Zm12.15-26.73L48.51 45.21a2.49 2.49 0 0 0-.51 1.15l-2.36 18.37a2.5 2.5 0 0 0 3.57 2.57l16.67-8.1a2.51 2.51 0 0 0 .93-.78l8.38-11.56v21.57a7.43 7.43 0 0 1-7.42 7.42H59a2.5 2.5 0 0 0-2.5 2.5v10.77L43.89 76.57a2.5 2.5 0 0 0-1.77-.73h-26.5a7.43 7.43 0 0 1-7.42-7.41V28.29a7.43 7.43 0 0 1 7.42-7.42h50.6Z" stroke="#5E97FF" fill="#FFFFFF" stroke-width="0px"></path>
        <path d="M19.29 68.23h19.13a2.5 2.5 0 0 0 0-5H19.29a2.5 2.5 0 1 0 0 5Z" stroke="#5E97FF" fill="#FFFFFF" stroke-width="0px"></path>
        <path d="M19.29 56.65h19.13a2.5 2.5 0 0 0 0-5H19.29a2.5 2.5 0 1 0 0 5Z" stroke="#5E97FF" fill="#FFFFFF" stroke-width="0px"></path>
        <path d="M19.29 45.07H43a2.5 2.5 0 1 0 0-5H19.29a2.5 2.5 0 1 0 0 5Z" stroke="#5E97FF" fill="#FFFFFF" stroke-width="0px"></path>
        <path d="M19.29 33.48h31.45a2.5 2.5 0 1 0 0-5H19.29a2.5 2.5 0 0 0 0 5Z" stroke="#5E97FF" fill="#FFFFFF" stroke-width="0px"></path>
    </g>
</svg>